<?xml version="1.0" encoding="UTF-8" standalone="no"?>
<!-- This is a Stata 15.1 generated SVG file (http://www.stata.com) -->

<svg version="1.1" width="5.50in" height="4.00in" viewBox="0 0 3960 2880" xmlns="http://www.w3.org/2000/svg" xmlns:xlink="http://www.w3.org/1999/xlink">
	<desc>Stata Graph - Graph</desc>
	<rect x="0" y="0" width="3960" height="2880" style="fill:#EAF2F3;stroke:none"/>
	<rect x="0.00" y="0.00" width="3959.88" height="2880.00" style="fill:#EAF2F3"/>
	<rect x="2.88" y="2.88" width="3954.12" height="2874.24" style="fill:none;stroke:#EAF2F3;stroke-width:5.76"/>
	<rect x="390.80" y="275.35" width="3468.22" height="1818.32" style="fill:#FFFFFF"/>
	<rect x="393.68" y="278.23" width="3462.46" height="1812.56" style="fill:none;stroke:#FFFFFF;stroke-width:5.76"/>
	<line x1="390.80" y1="2030.31" x2="3859.02" y2="2030.31" style="stroke:#EAF2F3;stroke-width:8.64"/>
	<line x1="390.80" y1="1691.96" x2="3859.02" y2="1691.96" style="stroke:#EAF2F3;stroke-width:8.64"/>
	<line x1="390.80" y1="1353.74" x2="3859.02" y2="1353.74" style="stroke:#EAF2F3;stroke-width:8.64"/>
	<line x1="390.80" y1="1015.40" x2="3859.02" y2="1015.40" style="stroke:#EAF2F3;stroke-width:8.64"/>
	<line x1="390.80" y1="677.06" x2="3859.02" y2="677.06" style="stroke:#EAF2F3;stroke-width:8.64"/>
	<line x1="390.80" y1="338.71" x2="3859.02" y2="338.71" style="stroke:#EAF2F3;stroke-width:8.64"/>
	<path d=" M700.80 1358.69 L778.88 1342.85 L865.26 1325.53 L933.82 1313.28 L1006.21 1301.15 L1049.40 1286.92 L1089.25 1275.28 L1145.92 1265.88 L1190.47 1251.65 L1234.53 1235.81 L1279.08 1225.78 L1317.19 1212.54 L1350.86 1204.62 L1382.54 1193.61 L1414.83 1181.48 L1457.78 1169.85 L1477.95 1161.93 L1505.91 1152.40 L1534.38 1143.98 L1559.74 1136.56 L1583.75 1123.44 L1599.96 1114.90 L1620.13 1111.19 L1632.02 1104.87 L1648.85 1096.46 L1673.72 1090.15 L1692.78 1086.93 L1709.36 1078.02 L1731.26 1071.09 L1746.73 1068.99 L1761.09 1064.78 L1780.39 1056.36 L1797.96 1051.04 L1822.84 1044.73 L1839.79 1038.91 L1853.28 1031.61 L1867.02 1023.07 L1893.75 1017.88 L1915.90 1013.67 L1936.93 1008.35 L1960.57 1003.03 L1985.57 1005.75 L2002.65 996.71 L2020.84 997.83 L2039.40 996.71 L2058.83 990.40 L2080.98 987.31 L2097.81 988.30 L2120.33 979.39 L2135.55 975.06 L2157.46 976.17 L2172.43 968.75 L2186.41 967.76 L2205.72 968.75 L2215.50 969.86 L2237.03 968.75 L2249.78 967.26 L2263.76 965.03 L2276.13 966.64 L2288.76 970.35 L2302.00 975.06 L2313.63 972.46 L2324.64 969.36 L2337.51 969.36 L2347.29 972.95 L2358.06 970.85 L2368.33 972.95 L2378.47 969.86 L2386.39 973.57 L2394.93 972.46 L2406.57 969.36 L2417.46 976.17 L2427.73 973.57 L2439.11 976.67 L2457.43 976.67 L2470.55 977.78 L2491.95 980.87 L2511.14 979.88 L2531.06 976.67 L2556.55 976.67 L2581.30 974.56 L2610.51 974.56 L2654.07 974.56 L2685.99 974.07 L2712.72 975.06 L2743.41 980.38 L2767.79 975.06 L2791.80 974.07 L2823.85 971.96 L2864.94 972.95 L2896.62 975.06 L2918.77 974.07 L2949.21 975.06 L2974.95 975.06 L3005.27 978.27 L3034.97 980.87 L3070.24 980.38 L3126.30 981.49 L3268.11 989.91" stroke-linecap="round" stroke-linejoin="round" style="fill:none;stroke:#1A476F;stroke-width:8.64"/>
	<path d=" M700.80 338.84 L778.88 340.20 L865.26 340.20 L933.82 345.64 L1006.21 352.45 L1049.40 355.17 L1089.25 361.98 L1145.92 371.51 L1190.47 375.59 L1234.53 376.95 L1279.08 385.12 L1317.19 390.57 L1350.86 401.46 L1382.54 409.63 L1414.83 415.07 L1457.78 421.88 L1477.95 434.25 L1505.91 443.78 L1534.38 454.67 L1559.74 466.92 L1583.75 472.37 L1599.96 483.26 L1620.13 499.59 L1632.02 513.21 L1648.85 524.22 L1673.72 537.83 L1692.78 555.53 L1709.36 566.42 L1731.26 578.67 L1746.73 597.73 L1761.09 614.07 L1780.39 625.08 L1797.96 640.06 L1822.84 655.03 L1839.79 668.64 L1853.28 680.89 L1867.02 691.78 L1893.75 706.76 L1915.90 723.22 L1936.93 738.19 L1960.57 753.17 L1985.57 779.03 L2002.65 788.56 L2020.84 811.83 L2039.40 832.24 L2058.83 845.86 L2080.98 863.55 L2097.81 886.70 L2120.33 897.71 L2135.55 914.05 L2157.46 937.19 L2172.43 949.44 L2186.41 969.86 L2205.72 993.12 L2215.50 1016.27 L2237.03 1036.69 L2249.78 1057.11 L2263.76 1076.16 L2276.13 1099.43 L2288.76 1126.66 L2302.00 1153.88 L2313.63 1172.94 L2324.64 1190.76 L2337.51 1212.54 L2347.29 1238.40 L2358.06 1257.46 L2368.33 1283.45 L2378.47 1301.15 L2386.39 1327.01 L2394.93 1347.43 L2406.57 1365.25 L2417.46 1396.56 L2427.73 1414.26 L2439.11 1440.12 L2457.43 1462.03 L2470.55 1485.17 L2491.95 1511.03 L2511.14 1531.45 L2531.06 1549.27 L2556.55 1571.06 L2581.30 1590.11 L2610.51 1611.89 L2654.07 1633.67 L2685.99 1655.58 L2712.72 1678.72 L2743.41 1707.31 L2767.79 1722.28 L2791.80 1742.83 L2823.85 1761.88 L2864.94 1785.03 L2896.62 1809.53 L2918.77 1830.07 L2949.21 1853.21 L2974.95 1874.99 L3005.27 1900.86 L3034.97 1925.49 L3070.24 1947.27 L3126.30 1970.41 L3268.11 2003.08" stroke-linecap="round" stroke-linejoin="round" style="fill:none;stroke:#90353B;stroke-width:8.64"/>
	<path d=" M700.80 2002.83 L778.88 1976.10 L865.26 1947.76 L933.82 1924.50 L1006.21 1900.36 L1049.40 1875.49 L1089.25 1852.22 L1145.92 1830.69 L1190.47 1804.83 L1234.53 1778.22 L1279.08 1756.69 L1317.19 1731.69 L1350.86 1711.89 L1382.54 1688.62 L1414.83 1665.36 L1457.78 1642.09 L1477.95 1621.42 L1505.91 1600.01 L1534.38 1579.35 L1559.74 1559.55 L1583.75 1534.55 L1599.96 1513.88 L1620.13 1497.55 L1632.02 1478.61 L1648.85 1457.94 L1673.72 1439.01 L1692.78 1422.67 L1709.36 1401.14 L1731.26 1382.21 L1746.73 1366.61 L1761.09 1349.41 L1780.39 1328.75 L1797.96 1310.68 L1822.84 1290.88 L1839.79 1272.81 L1853.28 1253.01 L1867.02 1232.34 L1893.75 1214.27 L1915.90 1197.07 L1936.93 1179.00 L1960.57 1160.94 L1985.57 1148.81 L2002.65 1128.14 L2020.84 1115.27 L2039.40 1100.67 L2058.83 1081.73 L2080.98 1065.40 L2097.81 1052.40 L2120.33 1030.87 L2135.55 1013.67 L2157.46 1000.80 L2172.43 981.00 L2186.41 966.39 L2205.72 953.40 L2215.50 940.53 L2237.03 925.93 L2249.78 910.46 L2263.76 894.86 L2276.13 882.86 L2288.76 871.72 L2302.00 862.19 L2313.63 845.86 L2324.64 829.52 L2337.51 815.66 L2347.29 805.39 L2358.06 789.92 L2368.33 776.93 L2378.47 760.59 L2386.39 750.32 L2394.93 735.59 L2406.57 719.26 L2417.46 710.72 L2427.73 695.13 L2439.11 683.99 L2457.43 670.25 L2470.55 657.26 L2491.95 646.12 L2511.14 631.52 L2531.06 615.18 L2556.55 601.32 L2581.30 585.85 L2610.51 572.11 L2654.07 558.25 L2685.99 543.65 L2712.72 530.78 L2743.41 521.25 L2767.79 503.18 L2791.80 488.58 L2823.85 473.11 L2864.94 460.12 L2896.62 448.11 L2918.77 433.51 L2949.21 420.52 L2974.95 406.78 L3005.27 395.64 L3034.97 384.38 L3070.24 369.78 L3126.30 356.91 L3268.11 349.98" stroke-linecap="round" stroke-linejoin="round" style="fill:none;stroke:#55752F;stroke-width:8.64"/>
	<line x1="390.80" y1="2093.67" x2="390.80" y2="275.35" style="stroke:#000000;stroke-width:5.76"/>
	<line x1="390.80" y1="2030.31" x2="350.83" y2="2030.31" style="stroke:#000000;stroke-width:5.76"/>
	<text x="300.72" y="2030.31" style="font-family:'Helvetica';font-size:99.99px;fill:#000000" transform="rotate(-90 300.72,2030.31)" text-anchor="middle">0</text>
	<line x1="390.80" y1="1691.96" x2="350.83" y2="1691.96" style="stroke:#000000;stroke-width:5.76"/>
	<text x="300.72" y="1691.96" style="font-family:'Helvetica';font-size:99.99px;fill:#000000" transform="rotate(-90 300.72,1691.96)" text-anchor="middle">20</text>
	<line x1="390.80" y1="1353.74" x2="350.83" y2="1353.74" style="stroke:#000000;stroke-width:5.76"/>
	<text x="300.72" y="1353.74" style="font-family:'Helvetica';font-size:99.99px;fill:#000000" transform="rotate(-90 300.72,1353.74)" text-anchor="middle">40</text>
	<line x1="390.80" y1="1015.40" x2="350.83" y2="1015.40" style="stroke:#000000;stroke-width:5.76"/>
	<text x="300.72" y="1015.40" style="font-family:'Helvetica';font-size:99.99px;fill:#000000" transform="rotate(-90 300.72,1015.40)" text-anchor="middle">60</text>
	<line x1="390.80" y1="677.06" x2="350.83" y2="677.06" style="stroke:#000000;stroke-width:5.76"/>
	<text x="300.72" y="677.06" style="font-family:'Helvetica';font-size:99.99px;fill:#000000" transform="rotate(-90 300.72,677.06)" text-anchor="middle">80</text>
	<line x1="390.80" y1="338.71" x2="350.83" y2="338.71" style="stroke:#000000;stroke-width:5.76"/>
	<text x="300.72" y="338.71" style="font-family:'Helvetica';font-size:99.99px;fill:#000000" transform="rotate(-90 300.72,338.71)" text-anchor="middle">100</text>
	<text x="190.71" y="1184.57" style="font-family:'Helvetica';font-size:99.99px;fill:#000000" transform="rotate(-90 190.71,1184.57)" text-anchor="middle">Percent</text>
	<line x1="390.80" y1="2093.67" x2="3859.02" y2="2093.67" style="stroke:#000000;stroke-width:5.76"/>
	<line x1="454.16" y1="2093.67" x2="454.16" y2="2133.64" style="stroke:#000000;stroke-width:5.76"/>
	<text x="454.16" y="2223.62" style="font-family:'Helvetica';font-size:99.99px;fill:#000000" text-anchor="middle">0</text>
	<line x1="1289.47" y1="2093.67" x2="1289.47" y2="2133.64" style="stroke:#000000;stroke-width:5.76"/>
	<text x="1289.47" y="2223.62" style="font-family:'Helvetica';font-size:99.99px;fill:#000000" text-anchor="middle">.2</text>
	<line x1="2124.91" y1="2093.67" x2="2124.91" y2="2133.64" style="stroke:#000000;stroke-width:5.76"/>
	<text x="2124.91" y="2223.62" style="font-family:'Helvetica';font-size:99.99px;fill:#000000" text-anchor="middle">.4</text>
	<line x1="2960.35" y1="2093.67" x2="2960.35" y2="2133.64" style="stroke:#000000;stroke-width:5.76"/>
	<text x="2960.35" y="2223.62" style="font-family:'Helvetica';font-size:99.99px;fill:#000000" text-anchor="middle">.6</text>
	<line x1="3795.66" y1="2093.67" x2="3795.66" y2="2133.64" style="stroke:#000000;stroke-width:5.76"/>
	<text x="3795.66" y="2223.62" style="font-family:'Helvetica';font-size:99.99px;fill:#000000" text-anchor="middle">.8</text>
	<text x="2124.91" y="2333.64" style="font-family:'Helvetica';font-size:99.99px;fill:#000000" text-anchor="middle">Predicted Outcome</text>
	<rect x="703.89" y="2418.27" width="2842.17" height="326.34" style="fill:#FFFFFF"/>
	<rect x="706.77" y="2421.15" width="2836.41" height="320.58" style="fill:none;stroke:#000000;stroke-width:5.76"/>
	<line x1="747.08" y1="2511.46" x2="1121.42" y2="2511.46" style="stroke:#1A476F;stroke-width:8.64"/>
	<line x1="2219.70" y1="2511.46" x2="2594.05" y2="2511.46" style="stroke:#90353B;stroke-width:8.64"/>
	<line x1="747.08" y1="2651.43" x2="1121.42" y2="2651.43" style="stroke:#55752F;stroke-width:8.64"/>
	<text x="1181.44" y="2546.49" style="font-family:'Helvetica';font-size:99.99px;fill:#000000">% correct</text>
	<text x="2654.07" y="2546.49" style="font-family:'Helvetica';font-size:99.99px;fill:#000000">True Positive Rate</text>
	<text x="1181.44" y="2686.46" style="font-family:'Helvetica';font-size:99.99px;fill:#000000">True Negative Rate</text>
	<text x="2124.91" y="215.98" style="font-family:'Helvetica';font-size:139.96px;fill:#1E2D53" text-anchor="middle">Goodness of fit measures</text>
</svg>
