<?xml version="1.0" encoding="UTF-8" standalone="no"?>
<!-- This is a Stata 15.1 generated SVG file (http://www.stata.com) -->

<svg version="1.1" width="5.50in" height="4.00in" viewBox="0 0 3960 2880" xmlns="http://www.w3.org/2000/svg" xmlns:xlink="http://www.w3.org/1999/xlink">
	<desc>Stata Graph - Graph</desc>
	<rect x="0" y="0" width="3960" height="2880" style="fill:#EAF2F3;stroke:none"/>
	<rect x="0.00" y="0.00" width="3959.88" height="2880.00" style="fill:#EAF2F3"/>
	<rect x="2.88" y="2.88" width="3954.12" height="2874.24" style="fill:none;stroke:#EAF2F3;stroke-width:5.76"/>
	<rect x="390.80" y="275.35" width="3468.22" height="1818.32" style="fill:#FFFFFF"/>
	<rect x="393.68" y="278.23" width="3462.46" height="1812.56" style="fill:none;stroke:#FFFFFF;stroke-width:5.76"/>
	<line x1="390.80" y1="2030.31" x2="3859.02" y2="2030.31" style="stroke:#EAF2F3;stroke-width:8.64"/>
	<line x1="390.80" y1="1691.96" x2="3859.02" y2="1691.96" style="stroke:#EAF2F3;stroke-width:8.64"/>
	<line x1="390.80" y1="1353.74" x2="3859.02" y2="1353.74" style="stroke:#EAF2F3;stroke-width:8.64"/>
	<line x1="390.80" y1="1015.40" x2="3859.02" y2="1015.40" style="stroke:#EAF2F3;stroke-width:8.64"/>
	<line x1="390.80" y1="677.06" x2="3859.02" y2="677.06" style="stroke:#EAF2F3;stroke-width:8.64"/>
	<line x1="390.80" y1="338.71" x2="3859.02" y2="338.71" style="stroke:#EAF2F3;stroke-width:8.64"/>
	<line x1="1881.25" y1="2093.67" x2="1881.25" y2="275.35" style="stroke:#C10534;stroke-width:8.64"/>
	<path d=" M755.25 1358.20 L840.63 1342.85 L919.59 1326.02 L981.71 1313.28 L1041.23 1301.77 L1088.26 1289.64 L1131.32 1279.00 L1180.08 1263.16 L1229.33 1253.13 L1268.31 1240.51 L1313.11 1227.89 L1353.08 1215.14 L1387.73 1204.13 L1415.95 1195.09 L1442.43 1185.69 L1466.93 1175.66 L1497.99 1168.73 L1519.03 1161.43 L1540.69 1155.61 L1565.44 1141.88 L1592.54 1134.45 L1617.16 1121.83 L1634.12 1112.79 L1651.32 1104.87 L1664.68 1098.07 L1680.03 1094.36 L1700.57 1082.72 L1713.19 1081.11 L1737.08 1075.42 L1754.03 1070.10 L1764.43 1065.89 L1778.41 1056.36 L1799.94 1050.55 L1814.05 1043.12 L1838.80 1040.03 L1853.16 1031.61 L1863.55 1025.80 L1881.25 1016.76 L1908.72 1016.27 L1928.40 1010.95 L1954.51 1007.36 L1972.20 1005.13 L1994.36 1000.92 L2011.18 998.82 L2027.77 991.52 L2050.29 992.51 L2072.44 990.40 L2083.45 987.31 L2104.24 986.19 L2125.90 982.48 L2144.84 976.67 L2166.12 975.06 L2183.32 974.07 L2193.34 975.06 L2204.48 977.78 L2217.23 976.17 L2237.65 979.39 L2249.40 982.48 L2260.29 972.95 L2270.07 974.07 L2281.21 979.88 L2296.06 981.49 L2308.18 978.77 L2318.09 976.17 L2327.74 976.17 L2335.41 977.78 L2345.80 973.57 L2357.07 973.57 L2367.59 972.46 L2374.39 969.36 L2382.19 969.86 L2391.84 972.95 L2404.59 973.57 L2412.51 975.68 L2429.95 975.68 L2442.08 977.28 L2459.78 979.88 L2477.23 979.39 L2497.28 977.28 L2517.20 974.56 L2545.41 974.56 L2579.20 972.46 L2604.20 972.46 L2644.04 978.27 L2684.88 979.39 L2717.30 976.17 L2753.56 981.49 L2785.49 979.39 L2825.58 974.07 L2852.81 970.85 L2892.16 975.06 L2923.97 974.07 L2951.93 971.96 L2982.87 969.86 L3019.99 978.27 L3045.61 977.28 L3081.50 981.49 L3131.12 983.60 L3204.01 988.79" stroke-linecap="round" stroke-linejoin="round" style="fill:none;stroke:#1A476F;stroke-width:8.64"/>
	<path d=" M755.25 338.84 L840.63 340.20 L919.59 340.20 L981.71 345.64 L1041.23 352.45 L1088.26 359.26 L1131.32 367.43 L1180.08 368.79 L1229.33 376.95 L1268.31 382.40 L1313.11 387.84 L1353.08 393.29 L1387.73 401.46 L1415.95 410.99 L1442.43 420.52 L1466.93 430.17 L1497.99 443.78 L1519.03 456.03 L1540.69 469.65 L1565.44 473.73 L1592.54 485.98 L1617.16 491.43 L1634.12 502.32 L1651.32 513.21 L1664.68 526.94 L1680.03 543.28 L1700.57 550.09 L1713.19 570.51 L1737.08 584.12 L1754.03 599.09 L1764.43 615.55 L1778.41 625.08 L1799.94 640.06 L1814.05 652.31 L1838.80 670.00 L1853.16 680.89 L1863.55 695.87 L1881.25 705.40 L1908.72 727.30 L1928.40 742.28 L1954.51 758.61 L1972.20 777.67 L1994.36 794.00 L2011.18 813.19 L2027.77 825.44 L2050.29 848.58 L2072.44 867.64 L2083.45 885.34 L2104.24 905.88 L2125.90 923.58 L2144.84 938.55 L2166.12 957.61 L2183.32 978.03 L2193.34 1001.29 L2204.48 1027.16 L2217.23 1046.22 L2237.65 1072.08 L2249.40 1098.07 L2260.29 1107.60 L2270.07 1130.74 L2281.21 1160.69 L2296.06 1183.95 L2308.18 1203.01 L2318.09 1220.71 L2327.74 1242.49 L2335.41 1267.12 L2345.80 1283.45 L2357.07 1305.23 L2367.59 1325.65 L2374.39 1343.35 L2382.19 1366.61 L2391.84 1392.48 L2404.59 1414.26 L2412.51 1438.76 L2429.95 1460.67 L2442.08 1485.17 L2459.78 1509.67 L2477.23 1531.45 L2497.28 1550.64 L2517.20 1568.33 L2545.41 1590.11 L2579.20 1609.17 L2604.20 1630.95 L2644.04 1661.02 L2684.88 1684.17 L2717.30 1701.86 L2753.56 1730.45 L2785.49 1749.63 L2825.58 1764.61 L2852.81 1782.30 L2892.16 1809.53 L2923.97 1830.07 L2951.93 1849.13 L2982.87 1868.19 L3019.99 1900.86 L3045.61 1921.40 L3081.50 1948.63 L3131.12 1973.13 L3204.01 2001.72" stroke-linecap="round" stroke-linejoin="round" style="fill:none;stroke:#90353B;stroke-width:8.64"/>
	<path d=" M755.25 2001.97 L840.63 1976.10 L919.59 1948.63 L981.71 1924.50 L1041.23 1901.23 L1088.26 1877.10 L1131.32 1854.82 L1180.08 1828.09 L1229.33 1806.56 L1268.31 1782.43 L1313.11 1758.42 L1353.08 1734.29 L1387.73 1711.02 L1415.95 1690.35 L1442.43 1668.82 L1466.93 1646.42 L1497.99 1626.62 L1519.03 1606.82 L1540.69 1588.75 L1565.44 1563.75 L1592.54 1543.95 L1617.16 1519.94 L1634.12 1498.41 L1651.32 1478.61 L1664.68 1458.81 L1680.03 1442.48 L1700.57 1419.21 L1713.19 1403.74 L1737.08 1385.55 L1754.03 1367.48 L1764.43 1350.28 L1778.41 1328.75 L1799.94 1309.81 L1814.05 1290.01 L1838.80 1273.67 L1853.16 1253.01 L1863.55 1234.07 L1881.25 1213.41 L1908.72 1198.80 L1928.40 1180.74 L1954.51 1164.40 L1972.20 1148.81 L1994.36 1131.61 L2011.18 1116.14 L2027.77 1096.34 L2050.29 1083.47 L2072.44 1068.00 L2083.45 1051.54 L2104.24 1036.93 L2125.90 1019.73 L2144.84 1000.80 L2166.12 986.19 L2183.32 971.47 L2193.34 958.60 L2204.48 946.59 L2217.23 931.87 L2237.65 920.73 L2249.40 909.59 L2260.29 888.06 L2270.07 875.06 L2281.21 865.66 L2296.06 853.53 L2308.18 837.19 L2318.09 821.73 L2327.74 807.99 L2335.41 794.99 L2345.80 777.79 L2357.07 764.06 L2367.59 749.45 L2374.39 733.12 L2382.19 719.26 L2391.84 708.12 L2404.59 695.13 L2412.51 683.12 L2429.95 669.38 L2442.08 656.39 L2459.78 645.25 L2477.23 630.65 L2497.28 615.18 L2517.20 599.59 L2545.41 585.85 L2579.20 570.38 L2604.20 556.52 L2644.04 547.12 L2684.88 534.25 L2717.30 517.79 L2753.56 508.38 L2785.49 492.91 L2825.58 474.84 L2852.81 458.38 L2892.16 448.11 L2923.97 433.51 L2951.93 418.04 L2982.87 402.45 L3019.99 395.64 L3045.61 380.91 L3081.50 370.64 L3131.12 358.64 L3204.01 349.11" stroke-linecap="round" stroke-linejoin="round" style="fill:none;stroke:#55752F;stroke-width:8.64"/>
	<path d=" M755.25 1874.75 L840.63 1822.40 L919.59 1770.67 L981.71 1754.33 L1041.23 1743.07 L1088.26 1729.58 L1131.32 1721.79 L1180.08 1689.74 L1229.33 1683.05 L1268.31 1666.35 L1313.11 1650.01 L1353.08 1634.05 L1387.73 1624.89 L1415.95 1621.05 L1442.43 1615.85 L1466.93 1609.30 L1497.99 1612.39 L1519.03 1612.39 L1540.69 1615.98 L1565.44 1596.67 L1592.54 1595.68 L1617.16 1579.72 L1634.12 1574.52 L1651.32 1570.93 L1664.68 1570.81 L1680.03 1577.61 L1700.57 1564.25 L1713.19 1576.50 L1737.08 1576.87 L1754.03 1578.60 L1764.43 1582.56 L1778.41 1573.65 L1799.94 1573.78 L1814.05 1569.57 L1838.80 1574.89 L1853.16 1567.96 L1863.55 1567.10 L1881.25 1558.31 L1908.72 1568.95 L1928.40 1568.46 L1954.51 1570.81 L1972.20 1576.75 L1994.36 1577.86 L2011.18 1583.31 L2027.77 1577.12 L2050.29 1589.00 L2072.44 1593.70 L2083.45 1596.05 L2104.24 1602.74 L2125.90 1603.85 L2144.84 1600.26 L2166.12 1604.96 L2183.32 1610.78 L2193.34 1620.93 L2204.48 1634.42 L2217.23 1638.50 L2237.65 1652.61 L2249.40 1666.47 L2260.29 1653.60 L2270.07 1662.88 L2281.21 1682.19 L2296.06 1692.21 L2308.18 1693.45 L2318.09 1694.19 L2327.74 1700.63 L2335.41 1710.65 L2345.80 1707.68 L2357.07 1713.87 L2367.59 1717.58 L2374.39 1716.47 L2382.19 1723.77 L2391.84 1736.64 L2404.59 1743.44 L2412.51 1754.09 L2429.95 1759.78 L2442.08 1769.31 L2459.78 1781.19 L2477.23 1785.77 L2497.28 1786.14 L2517.20 1784.90 L2545.41 1790.35 L2579.20 1790.10 L2604.20 1795.30 L2644.04 1816.34 L2684.88 1824.75 L2717.30 1821.16 L2753.56 1841.95 L2785.49 1841.09 L2825.58 1829.82 L2852.81 1824.13 L2892.16 1842.57 L2923.97 1843.07 L2951.93 1838.86 L2982.87 1833.04 L3019.99 1871.03 L3045.61 1868.56 L3081.50 1891.83 L3131.12 1904.82 L3204.01 1944.67" stroke-linecap="round" stroke-linejoin="round" style="fill:none;stroke:#E37E00;stroke-width:8.64"/>
	<line x1="390.80" y1="2093.67" x2="390.80" y2="275.35" style="stroke:#000000;stroke-width:5.76"/>
	<line x1="390.80" y1="2030.31" x2="350.83" y2="2030.31" style="stroke:#000000;stroke-width:5.76"/>
	<text x="300.72" y="2030.31" style="font-family:'Helvetica';font-size:99.99px;fill:#000000" transform="rotate(-90 300.72,2030.31)" text-anchor="middle">0</text>
	<line x1="390.80" y1="1691.96" x2="350.83" y2="1691.96" style="stroke:#000000;stroke-width:5.76"/>
	<text x="300.72" y="1691.96" style="font-family:'Helvetica';font-size:99.99px;fill:#000000" transform="rotate(-90 300.72,1691.96)" text-anchor="middle">20</text>
	<line x1="390.80" y1="1353.74" x2="350.83" y2="1353.74" style="stroke:#000000;stroke-width:5.76"/>
	<text x="300.72" y="1353.74" style="font-family:'Helvetica';font-size:99.99px;fill:#000000" transform="rotate(-90 300.72,1353.74)" text-anchor="middle">40</text>
	<line x1="390.80" y1="1015.40" x2="350.83" y2="1015.40" style="stroke:#000000;stroke-width:5.76"/>
	<text x="300.72" y="1015.40" style="font-family:'Helvetica';font-size:99.99px;fill:#000000" transform="rotate(-90 300.72,1015.40)" text-anchor="middle">60</text>
	<line x1="390.80" y1="677.06" x2="350.83" y2="677.06" style="stroke:#000000;stroke-width:5.76"/>
	<text x="300.72" y="677.06" style="font-family:'Helvetica';font-size:99.99px;fill:#000000" transform="rotate(-90 300.72,677.06)" text-anchor="middle">80</text>
	<line x1="390.80" y1="338.71" x2="350.83" y2="338.71" style="stroke:#000000;stroke-width:5.76"/>
	<text x="300.72" y="338.71" style="font-family:'Helvetica';font-size:99.99px;fill:#000000" transform="rotate(-90 300.72,338.71)" text-anchor="middle">100</text>
	<text x="190.71" y="1184.57" style="font-family:'Helvetica';font-size:99.99px;fill:#000000" transform="rotate(-90 190.71,1184.57)" text-anchor="middle">Percent</text>
	<line x1="390.80" y1="2093.67" x2="3859.02" y2="2093.67" style="stroke:#000000;stroke-width:5.76"/>
	<line x1="454.16" y1="2093.67" x2="454.16" y2="2133.64" style="stroke:#000000;stroke-width:5.76"/>
	<text x="454.16" y="2223.62" style="font-family:'Helvetica';font-size:99.99px;fill:#000000" text-anchor="middle">0</text>
	<line x1="1289.47" y1="2093.67" x2="1289.47" y2="2133.64" style="stroke:#000000;stroke-width:5.76"/>
	<text x="1289.47" y="2223.62" style="font-family:'Helvetica';font-size:99.99px;fill:#000000" text-anchor="middle">.2</text>
	<line x1="2124.91" y1="2093.67" x2="2124.91" y2="2133.64" style="stroke:#000000;stroke-width:5.76"/>
	<text x="2124.91" y="2223.62" style="font-family:'Helvetica';font-size:99.99px;fill:#000000" text-anchor="middle">.4</text>
	<line x1="2960.35" y1="2093.67" x2="2960.35" y2="2133.64" style="stroke:#000000;stroke-width:5.76"/>
	<text x="2960.35" y="2223.62" style="font-family:'Helvetica';font-size:99.99px;fill:#000000" text-anchor="middle">.6</text>
	<line x1="3795.66" y1="2093.67" x2="3795.66" y2="2133.64" style="stroke:#000000;stroke-width:5.76"/>
	<text x="3795.66" y="2223.62" style="font-family:'Helvetica';font-size:99.99px;fill:#000000" text-anchor="middle">.8</text>
	<text x="2124.91" y="2333.64" style="font-family:'Helvetica';font-size:99.99px;fill:#000000" text-anchor="middle">Predicted Outcome</text>
	<rect x="703.89" y="2418.27" width="2842.17" height="326.34" style="fill:#FFFFFF"/>
	<rect x="706.77" y="2421.15" width="2836.41" height="320.58" style="fill:none;stroke:#000000;stroke-width:5.76"/>
	<line x1="747.08" y1="2511.46" x2="1121.42" y2="2511.46" style="stroke:#1A476F;stroke-width:8.64"/>
	<line x1="2219.70" y1="2511.46" x2="2594.05" y2="2511.46" style="stroke:#90353B;stroke-width:8.64"/>
	<line x1="747.08" y1="2651.43" x2="1121.42" y2="2651.43" style="stroke:#55752F;stroke-width:8.64"/>
	<line x1="2219.70" y1="2651.43" x2="2594.05" y2="2651.43" style="stroke:#E37E00;stroke-width:8.64"/>
	<text x="1181.44" y="2546.49" style="font-family:'Helvetica';font-size:99.99px;fill:#000000">% correct</text>
	<text x="2654.07" y="2546.49" style="font-family:'Helvetica';font-size:99.99px;fill:#000000">True Positive Rate</text>
	<text x="1181.44" y="2686.46" style="font-family:'Helvetica';font-size:99.99px;fill:#000000">True Negative Rate</text>
	<text x="2654.07" y="2686.46" style="font-family:'Helvetica';font-size:99.99px;fill:#000000">MCC*100</text>
	<text x="2124.91" y="215.98" style="font-family:'Helvetica';font-size:139.96px;fill:#1E2D53" text-anchor="middle">Goodness of fit measures</text>
</svg>
